<svg width="20" height="16" viewBox="0 0 20 16" fill="none" xmlns="http://www.w3.org/2000/svg">
<g clip-path="url(#clip0_98_68)">
<path d="M7.96404 10.5121L8.34886 10.5113L10.6239 10.5083C10.6239 10.5083 11.4271 10.5132 11.4704 11.1755L11.5013 13.8686C11.5013 13.8686 11.2764 14.4917 10.6428 14.4919L6.98951 14.506C6.98951 14.506 5.11571 13.8824 5.12547 11.0515C5.12547 11.0515 5.13054 9.56929 5.13562 8.08681" stroke="#222222" stroke-width="1.1" stroke-miterlimit="10"/>
<path d="M7.95633 5.79157C7.95633 5.79157 8.34072 5.79075 8.44802 5.79051L10.5338 5.76662C10.5338 5.76662 11.3358 5.74334 11.3639 5.08095L11.3241 2.38381C11.3241 2.38381 11.0852 1.76673 10.4525 1.78102L7.01042 1.78854C7.01042 1.78854 5.15454 2.16461 5.125 5.12586C5.125 5.12586 5.06928 6.44672 5.11482 8.08729" stroke="#222222" stroke-width="1.1" stroke-miterlimit="10"/>
<path d="M19.0328 8.38135C19.1891 8.22514 19.1891 7.97188 19.0328 7.81567L16.4873 5.27008C16.331 5.11387 16.0778 5.11387 15.9216 5.27008C15.7654 5.42629 15.7654 5.67956 15.9216 5.83577L18.1843 8.09851L15.9216 10.3613C15.7654 10.5175 15.7654 10.7707 15.9216 10.9269C16.0778 11.0831 16.331 11.0831 16.4873 10.9269L19.0328 8.38135ZM11.25 8.49851L18.75 8.49851V7.69851L11.25 7.69851V8.49851Z" fill="#222222"/>
</g>
<defs>
<clipPath id="clip0_98_68">
<rect width="20" height="15.8016" fill="white" transform="translate(0 0.197693)"/>
</clipPath>
</defs>
</svg>
